<svg id="visual" viewBox="0 0 960 200" width="960" height="200" xmlns="http://www.w3.org/2000/svg" xmlns:xlink="http://www.w3.org/1999/xlink" version="1.1"><rect x="0" y="0" width="960" height="200" fill="#000000"></rect><path d="M0 98L137 98L137 110L274 110L274 102L411 102L411 116L549 116L549 104L686 104L686 101L823 101L823 109L960 109L960 99L960 201L960 201L823 201L823 201L686 201L686 201L549 201L549 201L411 201L411 201L274 201L274 201L137 201L137 201L0 201Z" fill="#492c5c"></path><path d="M0 149L137 149L137 140L274 140L274 143L411 143L411 135L549 135L549 140L686 140L686 143L823 143L823 134L960 134L960 144L960 201L960 201L823 201L823 201L686 201L686 201L549 201L549 201L411 201L411 201L274 201L274 201L137 201L137 201L0 201Z" fill="#2c193d"></path><path d="M0 175L137 175L137 157L274 157L274 179L411 179L411 168L549 168L549 155L686 155L686 161L823 161L823 149L960 149L960 178L960 201L960 201L823 201L823 201L686 201L686 201L549 201L549 201L411 201L411 201L274 201L274 201L137 201L137 201L0 201Z" fill="#140021"></path></svg>